<svg id="レイヤー_1" data-name="レイヤー 1" xmlns="http://www.w3.org/2000/svg" viewBox="0 0 100 100"><defs><style>.cls-1{fill:none;}.cls-2{fill:#e6ebf0;}</style></defs><title>default-user-icon</title><path class="cls-1" d="M63.23,18.23a26.26,26.26,0,0,1,3,2.13A26.26,26.26,0,0,0,63.23,18.23Z"/><path class="cls-1" d="M68,22c.57.58,1.12,1.18,1.64,1.81C69.16,23.19,68.61,22.59,68,22Z"/><path class="cls-1" d="M58.77,16.09a25.83,25.83,0,0,1,3.39,1.53A25.83,25.83,0,0,0,58.77,16.09Z"/><path class="cls-1" d="M42.41,15.69a25.13,25.13,0,0,1,2.45-.63A25.13,25.13,0,0,0,42.41,15.69Z"/><path class="cls-1" d="M37.84,17.62c.72-.39,1.47-.75,2.23-1.08C39.31,16.87,38.56,17.23,37.84,17.62Z"/><path class="cls-1" d="M33.77,20.36a26.26,26.26,0,0,1,3-2.13A26.26,26.26,0,0,0,33.77,20.36Z"/><path class="cls-1" d="M55.14,15.06a25.13,25.13,0,0,1,2.45.63A25.13,25.13,0,0,0,55.14,15.06Z"/><path class="cls-1" d="M28.85,25.79a25.5,25.5,0,0,0,0,28.52,25.5,25.5,0,0,1,0-28.52Z"/><path class="cls-1" d="M32.85,21.17a25.33,25.33,0,0,0-2.53,2.65A25.33,25.33,0,0,1,32.85,21.17Z"/><path class="cls-1" d="M71.15,50.07c-.46.68-1,1.34-1.47,2C70.2,51.41,70.69,50.75,71.15,50.07Z"/><path class="cls-1" d="M69.68,19.59a23.83,23.83,0,0,1,1.47,2A23.83,23.83,0,0,0,69.68,19.59Z"/><path class="cls-1" d="M36.77,57.62a25.07,25.07,0,0,1-3-2.13A25.07,25.07,0,0,0,36.77,57.62Z"/><path class="cls-1" d="M69.68,52c-.52.63-1.07,1.23-1.64,1.81C68.61,53.27,69.16,52.67,69.68,52Z"/><path class="cls-1" d="M30.32,52c-.52-.63-1-1.29-1.47-2C29.31,50.75,29.8,51.41,30.32,52Z"/><path class="cls-1" d="M28.85,21.55a23.83,23.83,0,0,1,1.47-2A23.83,23.83,0,0,0,28.85,21.55Z"/><path class="cls-1" d="M30.32,52a25.33,25.33,0,0,0,2.53,2.65A25.33,25.33,0,0,1,30.32,52Z"/><path class="cls-1" d="M37.84,58.24c.47.25,1,.49,1.44.72h0C38.8,58.73,38.31,58.49,37.84,58.24Z"/><path class="cls-1" d="M66.23,55.49a25.07,25.07,0,0,1-3,2.13A25.07,25.07,0,0,0,66.23,55.49Z"/><path class="cls-1" d="M71.15,50.07a25.5,25.5,0,0,0,0-28.52,25.5,25.5,0,0,1,0,28.52Z"/><path class="cls-1" d="M60.72,59c.48-.23,1-.47,1.44-.72-.47.25-1,.49-1.44.72Z"/><path class="cls-2" d="M57.59,60.17a25.13,25.13,0,0,1-2.45.63A25.13,25.13,0,0,0,57.59,60.17Z"/><path class="cls-2" d="M39.28,59l.79.35L39.28,59Z"/><path class="cls-2" d="M44.86,60.8a25.13,25.13,0,0,1-2.45-.63A25.13,25.13,0,0,0,44.86,60.8Z"/><path class="cls-2" d="M58.77,59.77c.66-.24,1.31-.52,1.95-.81h0C60.08,59.25,59.43,59.53,58.77,59.77Z"/><path class="cls-2" d="M55.65,61.57c.91-.19,1.81-.42,2.69-.69.44-.14.87-.28,1.3-.44.73-.27,1.44-.57,2.14-.9.54-.24,1.07-.5,1.58-.78s.79-.45,1.18-.68a28.37,28.37,0,0,0,3.29-2.34c.7-.57,1.36-1.18,2-1.81s1.23-1.3,1.8-2,1.11-1.42,1.62-2.16a28,28,0,0,0,0-31.35,26.43,26.43,0,0,0-1.62-2.16c-.57-.69-1.17-1.36-1.8-2a26.33,26.33,0,0,0-2-1.81,28.44,28.44,0,0,0-3.29-2.35l-1.18-.67a27.1,27.1,0,0,0-3.72-1.68c-.43-.16-.86-.31-1.3-.44a24.66,24.66,0,0,0-2.69-.69,28.29,28.29,0,0,0-11.3,0,24.66,24.66,0,0,0-2.69.69,25.42,25.42,0,0,0-2.57.94,26.3,26.3,0,0,0-2.45,1.18l-1.18.67a28.44,28.44,0,0,0-3.29,2.35c-.35.28-.69.58-1,.88a28.7,28.7,0,0,0-4.4,5.08,28,28,0,0,0,0,31.35c.51.74,1,1.46,1.62,2.16a27.36,27.36,0,0,0,2.78,2.92c.33.3.67.59,1,.88a28.37,28.37,0,0,0,3.29,2.34c.39.23.78.46,1.18.68s1,.54,1.58.78l.87.4c.84.35,1.69.67,2.57.94s1.78.5,2.69.69a28.29,28.29,0,0,0,11.3,0Z"/><path class="cls-2" d="M97.89,100a48.36,48.36,0,0,0-28-37.6,34.54,34.54,0,0,1-39.86,0,48.36,48.36,0,0,0-28,37.6Z"/></svg>