<?xml version="1.0" encoding="utf-8"?>
<!-- Generator: Adobe Illustrator 24.0.3, SVG Export Plug-In . SVG Version: 6.00 Build 0)  -->
<svg version="1.1" id="レイヤー_1" xmlns="http://www.w3.org/2000/svg" xmlns:xlink="http://www.w3.org/1999/xlink" x="0px"
	 y="0px" viewBox="0 0 180 42.4" style="enable-background:new 0 0 180 42.4;" xml:space="preserve">
<style type="text/css">
	.st0{fill:#32373C;}
	.st1{fill:#387CEC;}
</style>
<title>アートボード 1</title>
<path class="st0" d="M71,26c0.1-5.2,4.4-9.4,9.7-9.4c2.5-0.1,5,0.9,6.7,2.7l-3.2,3.2c-1-0.9-2.2-1.4-3.5-1.4c-2.6,0-4.8,2.1-4.8,4.7
	c0,0,0,0,0,0V26c-0.1,2.6,2,4.8,4.7,4.9c0,0,0,0,0,0h0.2c1.3,0,2.5-0.5,3.4-1.5l3.2,3.1c-1.7,1.8-4.1,2.9-6.7,2.8
	C75.1,35.4,71,31.6,71,26z"/>
<path class="st0" d="M91.7,26c0.1-5.2,4.4-9.4,9.7-9.4c5.6,0,9.7,3.8,9.7,9.4c-0.1,5.2-4.4,9.4-9.7,9.4C95.8,35.4,91.7,31.6,91.7,26
	z M106.2,26c0.1-2.7-1.9-4.9-4.6-5.1c-2.7-0.1-4.9,1.9-5.1,4.6l0,0c0,0.1,0,0.3,0,0.4c-0.1,2.7,1.9,4.9,4.6,5.1
	c2.7,0.1,4.9-1.9,5.1-4.6C106.2,26.3,106.2,26.1,106.2,26z"/>
<path class="st0" d="M115.5,26c0-5.2,4.2-9.4,9.4-9.4c1.8-0.1,3.6,0.5,5.1,1.5V7h4.8v19c-0.1,5.2-4.4,9.4-9.7,9.4
	C119.6,35.4,115.5,31.6,115.5,26z M130,26c0.1-2.7-1.9-4.9-4.6-5.1c-2.7-0.1-4.9,1.9-5.1,4.6l0,0c0,0.1,0,0.3,0,0.4
	c-0.1,2.7,1.9,4.9,4.6,5.1c2.7,0.1,4.9-1.9,5.1-4.6C130,26.3,130,26.1,130,26z"/>
<path class="st0" d="M139.8,26c0.1-5.2,4.4-9.4,9.7-9.4c5.6,0,9.7,3.8,9.7,9.4c-0.1,5.2-4.4,9.4-9.7,9.4
	C143.9,35.4,139.8,31.6,139.8,26z M154.3,26c0.1-2.7-1.9-4.9-4.6-5.1c-2.7-0.1-4.9,1.9-5.1,4.6l0,0c0,0.1,0,0.3,0,0.4
	c-0.1,2.7,1.9,4.9,4.6,5.1c2.7,0.1,4.9-1.9,5.1-4.6C154.3,26.3,154.3,26.1,154.3,26z"/>
<path class="st0" d="M163.6,26c0.1-5.2,4.4-9.4,9.7-9.4c2.5-0.1,5,0.9,6.7,2.6l-3.2,3.2c-1-0.9-2.2-1.4-3.5-1.4
	c-2.6-0.1-4.8,2-4.8,4.6c0,0,0,0,0,0c0,0.1,0,0.2,0,0.3c-0.1,2.6,2,4.8,4.7,4.9c0,0,0,0,0,0h0.2c1.3,0,2.5-0.6,3.4-1.5l3.2,3.1
	c-1.7,1.8-4.1,2.9-6.6,2.8C167.6,35.4,163.6,31.6,163.6,26z"/>
<rect x="17.4" y="30.7" class="st1" width="15.6" height="3.7"/>
<rect x="17.4" y="23.5" class="st1" width="15.6" height="3.7"/>
<rect x="17.4" y="16.3" class="st1" width="27.5" height="3.7"/>
<path class="st1" d="M52.7,14.2c0-3.3-2.7-6-6-6H14.2c-3.3,0-6,2.7-6,6v28.2h32.3l12.1-12.3l0,0V14.2z M40.6,36.6v-6.5h6.3
	L40.6,36.6z M48.6,26H36.5v12.3H12.4V15.7c0-1.9,1.5-3.4,3.4-3.4h29.4c1.9,0,3.4,1.5,3.4,3.4L48.6,26z"/>
<path class="st1" d="M4.1,12.7C4.1,8,8,4.1,12.8,4.1h19.5V0h-21C5,0,0,5,0,11.2v15h4.1V12.7z"/>
</svg>
